# xmcd CD database file
#
# Track frame offsets:
#	150
#	28956
#	38238
#	59298
#	80202
#	101407
#	119558
#	134353
#	160309
#	173251
#
# Disc length: 2619 seconds
#
# Revision: 1
# Processed by: cddbd v1.5.1PL2 Copyright (c) Steve Scherf et al.
# Submitted via: CDex 1.51
#
DISCID=840a390a
DTITLE=Peter Janson - Firelight Moonlight
DYEAR=2004
DGENRE=New Age
TTITLE0=Dancing Beneath the Stars
TTITLE1=Under a Shady Tree
TTITLE2=Wu Wei
TTITLE3=Purpose
TTITLE4=Simple Joys
TTITLE5=Moonlight
TTITLE6=Firelight
TTITLE7=Naissance
TTITLE8=Perched In the Soul
TTITLE9=A Clear Stillness
EXTD=YEAR: 2004
EXTT0=
EXTT1=
EXTT2=
EXTT3=
EXTT4=
EXTT5=
EXTT6=
EXTT7=
EXTT8=
EXTT9=
PLAYORDER=
